<?xml version="1.0" encoding="UTF-8"?>
<svg width="32px" height="33px" viewBox="0 0 32 33" version="1.1" xmlns="http://www.w3.org/2000/svg" xmlns:xlink="http://www.w3.org/1999/xlink">
    <title>编组 3</title>
    <g id="页面-1" stroke="none" stroke-width="1" fill="none" fill-rule="evenodd">
        <g id="动态墙备份-2" transform="translate(-120.000000, -20.000000)" fill-rule="nonzero">
            <g id="oscs" transform="translate(120.000000, 14.000000)">
                <g id="编组-3" transform="translate(0.000000, 6.656004)">
                    <g id="图层_2" fill="#4767FD">
                        <path d="M4.4408921e-16,15.4339959 C4.4408921e-16,15.4339959 7.55,7.72399592 8.38,7.12399592 C9.72105567,5.93546169 11.3415319,5.10630083 13.09,4.71399592 C16.6561082,3.8384818 20.4258257,4.7232873 23.23,7.09399592 C24.2032598,7.86363849 25.0182636,8.81447617 25.63,9.89399592 C25.82,9.74399592 28.8,6.73399592 28.8,6.73399592 C27.8782951,5.52813271 26.8399388,4.4160866 25.7,3.41399592 C23.2510386,1.45747844 20.2664276,0.289435608 17.14,0.0639959193 C13.9110077,-0.229356665 10.6708437,0.490679765 7.87,2.12399592 C5.52258892,3.52434675 3.56035083,5.48658484 2.16,7.83399592 C1.50532612,8.85299815 1.00964431,9.96575324 0.69,11.1339959 C0.247342853,12.5250166 0.0147808486,13.974316 4.4408921e-16,15.4339959 L4.4408921e-16,15.4339959 Z" id="路径"></path>
                        <path d="M11.79,12.8939959 C11.79,12.8939959 13.71,10.7939959 15.88,10.8939959 C18.36,11.0339959 19.02,11.9939959 19.49,12.5339959 C20.0606337,13.1904265 20.453166,13.9823776 20.63,14.8339959 C21.27,14.2439959 23.99,11.4239959 23.99,11.4239959 C23.1986798,10.0312611 22.0925463,8.84293817 20.76,7.95399592 C19.1624581,6.9563709 17.3020636,6.46165925 15.42,6.53399592 C13.7218659,6.64003508 12.0809526,7.18815527 10.66,8.12399592 C9.85933912,8.74667469 9.09476928,9.41442127 8.37,10.1239959 C7.69,10.8339959 0.23,18.3339959 0.23,18.3339959 C0.23,18.3339959 0.63,20.2539959 0.81,20.7439959 C1.04327279,21.5093273 1.34447064,22.252282 1.71,22.9639959 C1.86,22.8339959 11.79,12.8939959 11.79,12.8939959 Z" id="路径"></path>
                    </g>
                    <g id="图层_3" transform="translate(2.820000, 8.793996)" fill="#4A68FF">
                        <path d="M28.78,7.49 C28.78,7.49 21.01,15.29 20.41,15.8 C19.0638601,16.9810676 17.4453869,17.8092036 15.7,18.21 C13.4772334,18.7738673 11.134893,18.6412162 8.99,17.83 C7.74727065,17.3633569 6.5938581,16.6868686 5.58,15.83 C4.60430668,15.0640713 3.78594779,14.1166766 3.17,13.04 C2.98,13.18 0,16.2 0,16.2 C0.919946867,17.4043061 1.95848898,18.5132011 3.1,19.51 C5.54249264,21.4644182 8.52010537,22.6324513 11.64,22.86 C14.8677264,23.153026 18.1068136,22.436723 20.91,20.81 C23.2496548,19.4083687 25.210168,17.4547224 26.62,15.12 C27.2685025,14.1025414 27.7606492,12.9935259 28.08,11.83 C28.526205,10.4257988 28.7620948,8.96328182 28.78,7.49 Z" id="路径"></path>
                        <path d="M16.98,10.04 C15.9986316,11.2970258 14.4947302,12.0342323 12.9,12.04 C11.5087722,12.0656195 10.1810284,11.458756 9.29,10.39 C8.70650373,9.75259002 8.3087762,8.96751046 8.14,8.12 C7.5,8.71 4.78,11.53 4.78,11.53 C5.57245524,12.9246203 6.67821465,14.1159648 8.01,15.01 C9.6106025,15.9995862 11.469508,16.4904208 13.35,16.42 C15.0735459,16.316734 16.7409893,15.7689582 18.19,14.83 C18.9674865,14.2061578 19.7086944,13.538403 20.41,12.83 C21.09,12.17 28.59,4.63 28.59,4.63 C28.59,4.63 28.2,2.71 28.01,2.22 C27.7762029,1.45631962 27.4784835,0.713693491 27.12,0 C26.92,0.11 16.98,10.04 16.98,10.04 Z" id="路径"></path>
                    </g>
                </g>
            </g>
        </g>
    </g>
</svg>