<svg id="图层_1" data-name="图层 1" xmlns="http://www.w3.org/2000/svg" xmlns:xlink="http://www.w3.org/1999/xlink" viewBox="0 0 95 65"><defs><style>.cls-1{fill:url(#未命名的渐变_30);}.cls-2{fill:url(#未命名的渐变_30-2);}.cls-3{fill:url(#未命名的渐变_30-3);}.cls-4{fill:url(#未命名的渐变_30-4);}.cls-5{fill:url(#未命名的渐变_30-5);}.cls-6{fill:url(#未命名的渐变_30-6);}.cls-7{fill:url(#未命名的渐变_30-7);}.cls-8{fill:url(#未命名的渐变_30-8);}</style><linearGradient id="未命名的渐变_30" x1="3.84" y1="16.5" x2="83.17" y2="74.83" gradientUnits="userSpaceOnUse"><stop offset="0" stop-color="#55a2ff"/><stop offset="0.14" stop-color="#4190cd"/><stop offset="0.37" stop-color="#1e57b5"/><stop offset="0.84" stop-color="#2e4d92"/><stop offset="1" stop-color="#375cc6"/></linearGradient><linearGradient id="未命名的渐变_30-2" x1="16.12" y1="-0.2" x2="95.45" y2="58.14" xlink:href="#未命名的渐变_30"/><linearGradient id="未命名的渐变_30-3" x1="8.24" y1="10.52" x2="87.58" y2="68.85" xlink:href="#未命名的渐变_30"/><linearGradient id="未命名的渐变_30-4" x1="-5.88" y1="29.72" x2="73.45" y2="88.06" xlink:href="#未命名的渐变_30"/><linearGradient id="未命名的渐变_30-5" x1="4.51" y1="15.59" x2="83.85" y2="73.92" xlink:href="#未命名的渐变_30"/><linearGradient id="未命名的渐变_30-6" x1="-0.73" y1="22.72" x2="78.6" y2="81.06" xlink:href="#未命名的渐变_30"/><linearGradient id="未命名的渐变_30-7" x1="9.27" y1="9.11" x2="88.61" y2="67.45" xlink:href="#未命名的渐变_30"/><linearGradient id="未命名的渐变_30-8" x1="15.85" y1="0.17" x2="95.18" y2="58.5" xlink:href="#未命名的渐变_30"/></defs><title>940078</title><path class="cls-1" d="M15.36,15.37c-1.62-3.25-10.12,1.63-13.75,6-1.12,1.25.63,1.88,1.88,1.5s2.62-1.12,4.37.38.5,4.75.5,4.75-.5,2.75,1.75,2.12C10.11,30.12,17,18.62,15.36,15.37Z"/><path class="cls-2" d="M19.49,23.25C22.86,21.5,48.86,9,48.86,9S54.74,4.37,50,1.25c0,0,0,2.37-5.25,5S21.61,16.87,21.61,16.87s-1.25,0-2.75,2.63-2,3.62-2,3.62S16.11,25,19.49,23.25Z"/><path class="cls-3" d="M47.74,27c3.75-3.38,2-6.38,2-6.38a35.94,35.94,0,0,1-5.25,3.75C40.36,27,15.11,38,15.11,38S14,34.75,17.49,32.25s38.12-18,38.12-18,6.63-4,1.63-8.25c0,0,0,2.5-8.38,6.5s-34,16.5-34,16.5-5.37,3.62-4.62,9.25c.62,3.12,1.37,4,2,10.25.75,5.87,1.87,6.87,1.87,6.87s.75-5.62,1.25-10.12c.75-3,2.13-4.13,5.75-5.5S44,30.37,47.74,27Z"/><path class="cls-4" d="M31,51q-.57-1-2.43-1l-2.65,0-2.25,0,.35-1.7a3.49,3.49,0,0,1,1.13-2.06,2.72,2.72,0,0,1,2.09-.71l5.6-.06c.11-.31.29-.92.53-1.83a11.05,11.05,0,0,0,.25-1.93l-8.63.1a3.86,3.86,0,0,0-1.48.36,4.82,4.82,0,0,0-2.54,3.66l-1.37,6.49h0L19.24,54l7.4-.09a1,1,0,0,1,.71.33,4.45,4.45,0,0,1-.14,2.16l-.4,1.94c-.21,1-.67,1.48-1.4,1.49l-7.4.09c-.2.68-.35,1.29-.46,1.82l-.15.69a4.26,4.26,0,0,0-.12,1.36c1.21-.09,2.09-.14,2.66-.14l7.41-.1a2.45,2.45,0,0,0,.64-.12,4.09,4.09,0,0,0,1.89-3.09L31,54.73C31.42,52.9,31.4,51.65,31,51Z"/><path class="cls-5" d="M60.6,51c-.38-.68-1.19-1-2.44-1l-2.64,0-2.26,0,.36-1.7a3.44,3.44,0,0,1,1.13-2.06,2.7,2.7,0,0,1,2.08-.71l5.6-.06q.18-.46.54-1.83a12.39,12.39,0,0,0,.25-1.93l-8.64.1a3.77,3.77,0,0,0-1.47.36,4.8,4.8,0,0,0-2.55,3.66l-1.37,6.49h0L48.86,54l7.41-.09a1,1,0,0,1,.71.33,4.51,4.51,0,0,1-.15,2.16l-.4,1.94c-.2,1-.67,1.48-1.4,1.49l-7.4.09c-.19.68-.35,1.29-.46,1.82-.05.23-.09.46-.14.69a4.54,4.54,0,0,0-.13,1.36c1.21-.09,2.1-.14,2.67-.14l7.4-.1a2.44,2.44,0,0,0,.65-.12,4.15,4.15,0,0,0,1.89-3.09l1.16-5.57C61.05,52.9,61,51.65,60.6,51Z"/><path class="cls-6" d="M37.86,47.72a3.39,3.39,0,0,1,.24-.8,1.78,1.78,0,0,1,1.54-1l8.71-.1A10.68,10.68,0,0,0,48.88,44l0-.11a12.86,12.86,0,0,0,.24-1.94L39.82,42a6.11,6.11,0,0,0-1.6.25q-2.94,1.07-3.77,5L31,63.59l3.53-.05,1.82-8.76,9.18-.11a15,15,0,0,0,.53-1.83,15.85,15.85,0,0,0,.25-1.93L37.17,51Z"/><path class="cls-7" d="M77,42.94a2.89,2.89,0,0,0-2.54-1.22l-9.18.11L60.79,63.12l3.51,0h0L68,45.54l3.89,0c1.09,0,1.69.32,1.81,1a5.4,5.4,0,0,1-.22,2.16l0,.22a13.25,13.25,0,0,1-.41,1.6,1.49,1.49,0,0,1-1.28.92l-2.81,0H67.26l-.8,3.87,1.24,0h.39a14.82,14.82,0,0,0,.31,1.47L70.05,63,74.63,63l-2.5-7.69A3.86,3.86,0,0,0,75,54.2a7.38,7.38,0,0,0,1.64-3.77l.78-3.75A4.89,4.89,0,0,0,77,42.94Z"/><path class="cls-8" d="M85.12,41.36a5.09,5.09,0,0,0-2.3.6,6.2,6.2,0,0,0-3,4.46l-.87,4.22q-.6,2.84-1.66,8a8.19,8.19,0,0,0-.05,1.7c.31,1.74,1.43,2.59,3.35,2.57L90,62.77q.19-.57.51-1.71c.14-.91.23-1.63.29-2.16l-8.94.1H81.6A1.32,1.32,0,0,1,81,57.42L83.18,47a2.89,2.89,0,0,1,.19-.57,1.72,1.72,0,0,1,1.56-1.15l8-.1a12.93,12.93,0,0,0,.54-1.82,16,16,0,0,0,.27-2.05Z"/></svg>